# xmcd
#
# Track frame offsets:
#	150
#	15736
#	33395
#	50113
#	65268
#	82760
#	84093
#	103901
#	120110
#	136058
#	151691
#	169105
#	170338
#	189016
#	202592
#	219314
#	221105
#	239675
#
# Disc length: 3551 seconds
#
# Revision: 0
# Processed by: cddbd v1.5.2PL0 Copyright (c) Steve Scherf et al.
# Submitted via: EasyCDDAExtractor 11.0.2.1
#
DISCID=da0ddd12
DTITLE=La Rumeur - Du coeur à l'outrage
DYEAR=2007
DGENRE=Rap
TTITLE0=Il y a toujours un lendemain
TTITLE1=Comme de l'uranium
TTITLE2=Non sous titré
TTITLE3=La meilleure des polices
TTITLE4=En vente libre
TTITLE5=interlude 1
TTITLE6=Quand la lune tombe
TTITLE7=Qui ça étonne encore !
TTITLE8=Du qommeil, du soleil, de l'os
TTITLE9=Je suis une bande ethnique à m
TTITLE10=un chien dans la tête
TTITLE11=interlude 2
TTITLE12=Que dit l'autopsie ?
TTITLE13=Nature morte
TTITLE14=Tel quel
TTITLE15=Interlude 3
TTITLE16=Là où poussent mes racines
TTITLE17=Les bronzés font du rap feat S
EXTD=
EXTT0=
EXTT1=
EXTT2=
EXTT3=
EXTT4=
EXTT5=
EXTT6=
EXTT7=
EXTT8=
EXTT9=
EXTT10=
EXTT11=
EXTT12=
EXTT13=
EXTT14=
EXTT15=
EXTT16=
EXTT17=
PLAYORDER=
